<?xml version="1.0" encoding="UTF-8"?>
<!DOCTYPE svg PUBLIC "-//W3C//DTD SVG 1.1//EN" "http://www.w3.org/Graphics/SVG/1.1/DTD/svg11.dtd">
<!-- Creator: CorelDRAW X7 -->
<svg xmlns="http://www.w3.org/2000/svg" xml:space="preserve" width="4.72441in" height="4.52677in" version="1.1" style="shape-rendering:geometricPrecision; text-rendering:geometricPrecision; image-rendering:optimizeQuality; fill-rule:evenodd; clip-rule:evenodd"
viewBox="0 0 4724 4527"
 xmlns:xlink="http://www.w3.org/1999/xlink">
 <defs>
  <style type="text/css">
   <![CDATA[
    .fil14 {fill:none}
    .fil4 {fill:#34083A}
    .fil13 {fill:#34083A}
    .fil9 {fill:#533359}
    .fil11 {fill:#674A6F}
    .fil0 {fill:#C5215D}
    .fil7 {fill:#CFEAFC}
    .fil6 {fill:#E29952}
    .fil1 {fill:#E5306F}
    .fil8 {fill:#E94D7F}
    .fil3 {fill:#F9B56A}
    .fil5 {fill:#FCCA92}
    .fil12 {fill:#FCCA92}
    .fil10 {fill:#FCD5A9}
    .fil2 {fill:#FDFDFD}
   ]]>
  </style>
 </defs>
 <g id="Layer_x0020_1">
  <metadata id="CorelCorpID_0Corel-Layer"/>
  <g id="_354580824">
   <path class="fil0" d="M2243 3556c23,44 28,28 70,65 40,36 87,79 134,100 88,-40 249,-203 301,-278 104,-147 131,-351 6,-411 16,74 11,199 -10,260 -16,48 -63,118 -95,163 -78,107 -214,164 -406,101z"/>
   <path class="fil1" d="M2116 3342c-22,-44 -46,-97 -34,-177 4,-25 15,-59 28,-82 19,-34 21,-31 64,-42 135,-17 176,64 265,99l19 6c69,-22 86,-50 128,-116 180,-19 123,307 -32,430 -142,113 -352,67 -438,-118zm179 232c174,46 280,-17 354,-119 32,-45 79,-115 95,-163 21,-61 32,-182 16,-256 -35,-58 -140,-51 -191,-28 -53,24 -70,52 -96,92l-26 31c-55,-56 -69,-143 -201,-138 -91,3 -155,79 -178,147 -34,99 9,197 50,263 23,38 83,127 125,154 12,8 37,13 52,17z"/>
   <path class="fil2" d="M3204 1749l-37 -1c-243,-1 -1950,23 -2022,-12 -1,-68 35,-50 98,-50l1928 0c179,1 225,-22 214,57l-181 6zm-1337 -418c-52,0 -667,16 -718,-12 -13,-51 9,-50 61,-50l681 0c41,2 50,6 53,47 -30,19 -29,15 -77,15zm-1259 334c86,62 163,137 262,201 53,34 94,56 141,92 30,22 116,93 127,71 21,-56 5,-49 128,-49l802 0c294,0 611,-12 903,1l171 0 238 5c10,38 16,15 -5,52 -17,15 6,10 -36,17 -1,1 -31,1 -34,1l-479 0c-223,-3 -1587,14 -1674,-10 12,17 1,9 24,27 47,38 257,163 281,223l1017 1 1 58 -917 4c51,61 201,177 270,220 389,243 533,-195 716,-47 102,83 153,167 349,99 184,-64 388,-287 562,-420l407 -329c28,-23 48,-36 69,-53 34,-25 29,-37 76,-49l0 -1183 -3399 0 0 1068z"/>
   <path class="fil3" d="M1391 3587c17,-23 22,-29 53,-40l34 29c-31,34 -24,5 -35,54 52,-12 13,-8 55,-31 -18,80 -98,72 -107,-12zm90 -34c-16,-83 30,-105 83,-65 -22,30 -33,26 -39,62 48,-12 11,-10 56,-32 -11,36 -18,40 -49,59l-51 -24zm64 -111c45,-107 179,-59 89,45 9,20 11,19 20,44 -39,-4 -59,-33 -109,-89zm657 -509l44 -16c74,-15 32,-1 92,-41 132,-85 85,-98 219,10 61,49 126,18 142,49 64,25 96,42 134,88 45,53 42,77 66,141l849 693c59,50 471,369 494,411l-352 -220c-106,-72 -224,-142 -339,-218 -71,-46 -617,-422 -696,-434 -88,130 -264,340 -408,402 -128,-67 -314,-243 -391,-377 -82,-141 -92,-291 28,-420 43,-47 61,-43 118,-68zm-460 306c-11,36 -10,26 -8,68l60 13c-24,22 -18,13 -56,14 5,46 4,27 -4,41 -38,-24 -35,-38 -83,-60 22,59 44,41 60,95 -55,-16 -45,-48 -101,-72 -39,29 -128,81 -144,116 -36,51 -142,165 -194,188 -20,8 -4,1 -13,26 111,6 48,-31 114,-56 -7,94 18,51 33,104 -51,-11 -16,-30 -89,-47 -4,99 30,47 31,101 -53,-23 -14,-12 -52,-36 -66,-42 -13,12 -49,-65 -13,42 1,15 -27,51 -17,21 -2,-3 -16,19 -13,20 1,-5 -12,26 2,2 6,2 7,7 1,4 6,5 7,6 13,19 2,1 14,23l7 15c25,45 22,87 -30,114 -36,18 -73,1 -93,-20l48 -25c4,-46 6,-17 -10,-56l53 -6c-6,-35 -6,-27 -30,-44 36,0 -2,5 14,-13 -101,10 -119,54 -89,151 20,63 -35,129 27,220 146,212 665,144 917,156 167,9 326,31 491,42 342,23 698,6 1045,25 117,6 934,71 979,99l41 -1c-1,-3 -4,-10 -5,-8l-1381 -1152c-24,-19 -41,-35 -67,-55l-670 -553 -725 549z"/>
   <path class="fil4" d="M1466 3454c16,-35 85,-59 124,-87 31,-31 113,-88 152,-128l725 -549 670 553c26,20 43,36 67,55l1381 1152c1,-2 4,5 5,8l-41 1c-363,12 -745,0 -1111,1l-2195 0c-361,0 -745,12 -1104,-2 46,-57 900,-688 987,-755 59,-46 102,-77 164,-124 50,-38 122,-102 176,-125zm2369 -1237c4,-7 6,-13 20,-28 10,-11 13,-13 24,-22l777 -660 1 2444 0 466c-63,-35 -376,-309 -442,-358l-219 -183c-67,-61 -137,-113 -212,-177l-328 -273c-34,-28 -73,-57 -106,-85l-213 -177c-46,-42 -179,-139 -206,-176 53,-53 867,-755 904,-771zm-3227 -552l0 -1068 3399 0 0 1183 -1 191 -1058 915c-31,25 -30,34 -67,57 -67,-32 -383,-324 -412,-326 -30,-2 -390,292 -455,331l-739 -589 283 0 917 -4 -1 -58 -1017 -1 -282 -1c-50,-54 -347,-279 -427,-341 -172,-132 -140,-80 -140,-289zm3462 -202l525 -1c-18,32 -523,456 -526,457l1 -456zm-3524 324c-38,-18 -364,-271 -413,-324 112,-1 311,-7 413,3l0 321zm3523 -704l264 161c44,29 79,48 123,77l115 79 -501 1 -1 -318zm-3907 317c37,-35 322,-195 384,-223l1 137 -2 84 -115 2 -56 0 -212 0zm1497 -869c45,-35 139,-86 198,-118 72,-40 132,-78 204,-119 67,-38 138,-78 207,-117 64,-36 140,-90 201,-112l734 469 -1544 -3zm-1655 2131c56,-21 -1,-10 61,-49l0 -1112 20 12 407 318c39,30 64,51 106,84 48,37 278,213 289,236 55,25 100,68 148,107l921 727 -1775 1356c-34,26 -78,65 -115,80l-3 -1584 -59 -13c6,281 0,570 0,852 0,91 -16,817 16,841 26,19 4028,4 4555,5 100,0 138,17 144,-54l-1 -1505c0,-293 15,-1343 -2,-1546 -42,-31 -639,-396 -647,-426l1 -412c-2,-22 -2,-12 -7,-25 0,-2 -4,-3 -4,-6 -8,-53 -664,29 -773,-39l-490 -313c-58,-36 -113,-68 -165,-102 -187,-122 -128,-133 -367,12l-579 335c-94,55 -132,94 -219,95 -139,0 -875,-13 -903,6 -12,9 -16,-9 -17,58l1 213c0,97 1,196 -3,289l-540 309 0 1251z"/>
   <path class="fil3" d="M148 2617l2 -94c11,-117 1,-234 -1,-351 -6,-353 264,-233 359,-134 20,20 63,79 83,95 77,63 14,55 93,72 -51,111 474,401 259,870 -86,187 -317,369 -499,446 -61,26 -164,96 -223,84 -36,-58 -23,-161 -23,-241 -1,-99 -11,-157 -23,-246 -24,-183 -17,-320 -27,-501zm739 -466c-11,-23 -241,-199 -289,-236 -42,-33 -67,-54 -106,-84l-407 -318c-22,118 -4,487 -4,637 0,152 5,343 -9,490 -3,28 1,34 1,45l-1 22c0,5 -1,6 -1,11 -3,26 -6,53 -3,78 24,244 18,1075 13,1287 236,-81 467,-229 655,-356l305 -209c239,-180 628,-420 465,-728 -40,-75 -107,-157 -167,-212l-189 -178c-6,-5 -14,-11 -19,-16l-50 -49c-25,-22 -43,-32 -68,-55l-126 -129z"/>
   <path class="fil3" d="M3784 3453c-59,-113 69,-208 129,-108 62,102 -42,141 -129,108zm208 -240c19,-26 27,-2 10,-53 -17,-50 -110,-175 -115,-352 -4,-145 61,-303 118,-414 102,-197 205,-320 330,-484 36,-48 74,-110 169,-108 104,124 101,378 86,561 -18,209 -9,425 -26,634 -19,225 -155,692 -410,387 -34,-40 -104,-156 -149,-181 -7,105 27,31 32,104 -38,-12 -29,-29 -90,-50 -6,-39 -28,-70 15,-92 13,43 -23,28 30,48zm-157 -996l-175 255c-33,42 -54,78 -88,123 -25,33 -44,31 -96,117 -159,259 -24,431 118,587 281,308 621,552 1063,652l-1 -2444 -777 660c-11,9 -14,11 -24,22 -14,15 -16,21 -20,28z"/>
   <path class="fil5" d="M390 2490c-20,79 -93,72 -109,28 -29,-75 35,-91 90,-74 -34,77 -35,10 -65,40 25,12 23,10 36,33l48 -27zm-25 -106c20,-20 22,-28 54,-26 54,2 4,-2 26,12 6,28 -11,31 -30,61 41,3 -1,-15 60,-25 -9,36 -16,61 -67,56 -54,-5 -52,-35 -43,-78zm-215 139l22 -4c-1,4 -4,19 -4,23 0,22 -1,5 6,21 52,-13 24,0 49,-31 26,-32 5,-21 40,-35 -6,79 14,53 35,112 -50,-16 -38,-23 -82,-51l-14 26c21,69 25,-21 40,80 -35,-14 -40,-20 -56,-46l-38 -1c10,181 3,318 27,501 12,89 22,147 23,246 0,80 -13,183 23,241 59,12 162,-58 223,-84 182,-77 413,-259 499,-446 215,-469 -310,-759 -259,-870 -79,-17 -16,-9 -93,-72 -20,-16 -63,-75 -83,-95 -95,-99 -365,-219 -359,134 2,117 12,234 1,351z"/>
   <path class="fil5" d="M4171 3097c-12,48 -22,24 -42,67 54,-16 9,-11 57,-33 -2,64 -33,63 -90,54 -10,-18 -18,-29 -22,-55l40 -51 57 18zm0 0c-15,-40 -15,-52 5,-89 125,-27 52,34 42,73 19,-8 2,0 18,-10l34 -21c-13,69 -39,67 -99,47zm314 -233l-58 9c8,38 4,12 2,30 -6,51 12,-9 -10,13 -27,-15 -37,-30 -57,-51 -40,-43 -38,-15 -47,-72 45,9 45,16 74,45l19 -49c12,14 11,1 15,51 45,7 35,-1 62,24zm-493 349c-53,-20 -17,-5 -30,-48 -43,22 -21,53 -15,92 61,21 52,38 90,50 -5,-73 -39,1 -32,-104 45,25 115,141 149,181 255,305 391,-162 410,-387 17,-209 8,-425 26,-634 15,-183 18,-437 -86,-561 -95,-2 -133,60 -169,108 -125,164 -228,287 -330,484 -57,111 -122,269 -118,414 5,177 98,302 115,352 17,51 9,27 -10,53z"/>
   <path class="fil6" d="M4549 4459c-45,-28 -862,-93 -979,-99 -347,-19 -703,-2 -1045,-25 -165,-11 -324,-33 -491,-42 -252,-12 -771,56 -917,-156 -62,-91 -7,-157 -27,-220 -30,-97 -12,-141 89,-151l13 -1c13,-31 -1,-6 12,-26 14,-22 -1,2 16,-19 28,-36 14,-9 27,-51 8,-15 8,-53 25,-27 52,-23 158,-137 194,-188 -54,23 -126,87 -176,125 -62,47 -105,78 -164,124 -87,67 -941,698 -987,755 359,14 743,2 1104,2l2195 0c366,-1 748,11 1111,-1z"/>
   <path class="fil6" d="M4657 3951c-442,-100 -782,-344 -1063,-652 -142,-156 -277,-328 -118,-587 52,-86 71,-84 96,-117 34,-45 55,-81 88,-123l175 -255c-37,16 -851,718 -904,771 27,37 160,134 206,176l213 177c33,28 72,57 106,85l328 273c75,64 145,116 212,177l219 183c66,49 379,323 442,358l0 -466z"/>
   <path class="fil7" d="M1558 2359l-283 0 739 589c65,-39 425,-333 455,-331 29,2 345,294 412,326 37,-23 36,-32 67,-57l1058 -915 1 -191c-47,12 -42,24 -76,49 -21,17 -41,30 -69,53l-407 329c-174,133 -378,356 -562,420 -196,68 -247,-16 -349,-99 -183,-148 -327,290 -716,47 -69,-43 -219,-159 -270,-220z"/>
   <path class="fil6" d="M65 2613l-2 224 3 1584c37,-15 81,-54 115,-80l1775 -1356 -921 -727c-48,-39 -93,-82 -148,-107l126 129c25,23 43,33 68,55l50 49c5,5 13,11 19,16l189 178c60,55 127,137 167,212 163,308 -226,548 -465,728l-305 209c-188,127 -419,275 -655,356 5,-212 11,-1043 -13,-1287 -3,-25 0,-52 3,-78 0,-5 1,-6 1,-11l1 -22c0,-11 -4,-17 -1,-45 14,-147 9,-338 9,-490 0,-150 -18,-519 4,-637l-20 -12 0 1112z"/>
   <path class="fil3" d="M1659 531l1544 3 -734 -469c-61,22 -137,76 -201,112 -69,39 -140,79 -207,117 -72,41 -132,79 -204,119 -59,32 -153,83 -198,118z"/>
   <path class="fil8" d="M2174 3041c8,61 -28,83 -35,147 -6,59 16,96 18,156l-41 -2c86,185 296,231 438,118 155,-123 212,-449 32,-430 -42,66 -59,94 -128,116l-19 -6c-89,-35 -130,-116 -265,-99z"/>
   <path class="fil5" d="M2855 3396c79,12 625,388 696,434 115,76 233,146 339,218l352 220c-23,-42 -435,-361 -494,-411l-849 -693c7,129 -14,130 -44,232z"/>
   <path class="fil7" d="M1457 2296c-24,-60 -234,-185 -281,-223 -23,-18 -12,-10 -24,-27 87,24 1451,7 1674,10l479 0c3,0 33,0 34,-1 42,-7 19,-2 36,-17l-289 3 -157 0c-249,-3 -1688,24 -1791,-12 -11,22 -97,-49 -127,-71 -47,-36 -88,-58 -141,-92 -99,-64 -176,-139 -262,-201 0,209 -32,157 140,289 80,62 377,287 427,341l282 1z"/>
   <path class="fil4" d="M2790 3065c82,78 51,248 -42,378 -52,75 -213,238 -301,278 -47,-21 -94,-64 -134,-100 -74,-65 -142,-132 -195,-218 -41,-66 -84,-164 -50,-263 23,-68 87,-144 178,-147 132,-5 146,82 201,138l26 -31c26,-40 43,-68 96,-92 41,-18 115,-24 160,6 8,6 54,44 61,51zm65 331c30,-102 51,-103 44,-232 -24,-64 -21,-88 -66,-141 -38,-46 -70,-63 -134,-88 -142,-21 -179,36 -252,84 -107,-96 -258,-132 -363,-18 -120,129 -110,279 -28,420 77,134 263,310 391,377 144,-62 320,-272 408,-402z"/>
   <path class="fil4" d="M3167 1748c10,-48 -8,-19 29,-33l8 34 181 -6c11,-79 -35,-56 -214,-57l-1928 0c-63,0 -99,-18 -98,50 72,35 1779,11 2022,12z"/>
   <path class="fil6" d="M4069 1919c3,-1 508,-425 526,-457l-525 1 -1 456z"/>
   <path class="fil4" d="M1138 2029c103,36 1542,9 1791,12 19,-20 28,-9 42,-60 -292,-13 -609,-1 -903,-1l-802 0c-123,0 -107,-7 -128,49z"/>
   <path class="fil3" d="M4070 1401l501 -1 -115 -79c-44,-29 -79,-48 -123,-77l-264 -161 1 318z"/>
   <path class="fil6" d="M546 1787l0 -321c-102,-10 -301,-4 -413,-3 49,53 375,306 413,324z"/>
   <path class="fil4" d="M1149 1319c51,28 666,12 718,12 48,0 47,4 77,-15 -3,-41 -12,-45 -53,-47l-681 0c-52,0 -74,-1 -61,50z"/>
   <path class="fil3" d="M162 1400l212 0 56 0 115 -2 2 -84 -1 -137c-62,28 -347,188 -384,223z"/>
   <path class="fil5" d="M2202 2933c128,-3 175,34 245,86 73,-48 110,-105 252,-84 -16,-31 -81,0 -142,-49 -134,-108 -87,-95 -219,-10 -60,40 -18,26 -92,41l-44 16z"/>
   <path class="fil5" d="M3784 3453c87,33 191,-6 129,-108 -60,-100 -188,-5 -129,108z"/>
   <path class="fil2" d="M2116 3342c18,29 30,23 41,2 -2,-60 -24,-97 -18,-156 7,-64 43,-86 35,-147 -43,11 -45,8 -64,42 -13,23 -24,57 -28,82 -12,80 12,133 34,177z"/>
   <path class="fil4" d="M3086 2041l289 -3c21,-37 15,-14 5,-52l-238 -5c-30,46 -44,6 -81,24 1,2 4,2 5,5l20 31z"/>
   <path class="fil5" d="M1192 3765l-13 1c-16,18 22,13 -14,13 24,17 24,9 30,44l-53 6c16,39 14,10 10,56l-48 25c20,21 57,38 93,20 52,-27 55,-69 30,-114l-7 -15c-12,-22 -1,-4 -14,-23 -1,-1 -6,-2 -7,-6 -1,-5 -5,-5 -7,-7z"/>
   <path class="fil9" d="M4 2662l0 162 59 13 2 -224c-62,39 -5,28 -61,49z"/>
   <path class="fil5" d="M1545 3442c50,56 70,85 109,89 -9,-25 -11,-24 -20,-44 90,-104 -44,-152 -89,-45z"/>
   <path class="fil10" d="M150 2523l-2 94 38 1c16,26 21,32 56,46 -15,-101 -19,-11 -40,-80l14 -26c44,28 32,35 82,51 -21,-59 -41,-33 -35,-112 -35,14 -14,3 -40,35 -25,31 3,18 -49,31 -7,-16 -6,1 -6,-21 0,-4 3,-19 4,-23l-22 4z"/>
   <path class="fil10" d="M4389 2838c-29,-29 -29,-36 -74,-45 9,57 7,29 47,72 20,21 30,36 57,51 22,-22 4,38 10,-13 2,-18 6,8 -2,-30l58 -9c-27,-25 -17,-17 -62,-24 -4,-50 -3,-37 -15,-51l-19 49z"/>
   <path class="fil10" d="M365 2384c-9,43 -11,73 43,78 51,5 58,-20 67,-56 -61,10 -19,28 -60,25 19,-30 36,-33 30,-61 -22,-14 28,-10 -26,-12 -32,-2 -34,6 -54,26z"/>
   <path class="fil9" d="M2929 2041l157 0 -20 -31c-1,-3 -4,-3 -5,-5 37,-18 51,22 81,-24l-171 0c-14,51 -23,40 -42,60z"/>
   <path class="fil10" d="M4171 3097c60,20 86,22 99,-47l-34 21c-16,10 1,2 -18,10 10,-39 83,-100 -42,-73 -20,37 -20,49 -5,89z"/>
   <path class="fil5" d="M1272 3642c-17,-26 -17,12 -25,27 36,77 -17,23 49,65 38,24 -1,13 52,36 -1,-54 -35,-2 -31,-101 73,17 38,36 89,47 -15,-53 -40,-10 -33,-104 -66,25 -3,62 -114,56 9,-25 -7,-18 13,-26z"/>
   <path class="fil10" d="M4171 3097l-57 -18 -40 51c4,26 12,37 22,55 57,9 88,10 90,-54 -48,22 -3,17 -57,33 20,-43 30,-19 42,-67z"/>
   <path class="fil10" d="M390 2490l-48 27c-13,-23 -11,-21 -36,-33 30,-30 31,37 65,-40 -55,-17 -119,-1 -90,74 16,44 89,51 109,-28z"/>
   <path class="fil5" d="M1481 3553l51 24c31,-19 38,-23 49,-59 -45,22 -8,20 -56,32 6,-36 17,-32 39,-62 -53,-40 -99,-18 -83,65z"/>
   <path class="fil5" d="M1391 3587c9,84 89,92 107,12 -42,23 -3,19 -55,31 11,-49 4,-20 35,-54l-34 -29c-31,11 -36,17 -53,40z"/>
   <path class="fil11" d="M3167 1748l37 1 -8 -34c-37,14 -19,-15 -29,33z"/>
   <polygon class="fil4" points="4,2329 6,3235 64,3319 65,2057 "/>
   <path class="fil5" d="M150 2210c0,0 -18,855 34,974 52,119 607,-332 596,-373 -10,-42 -91,-334 -93,-352 -3,-18 -141,-172 -159,-182 -18,-10 -378,-67 -378,-67z"/>
   <path class="fil3" d="M561 2100c0,0 207,261 252,321 44,59 176,137 176,137 0,0 -37,-166 -73,-221 -37,-55 -234,-235 -266,-255 -31,-21 -93,-50 -93,-50l4 68z"/>
   <polygon class="fil3" points="1822,3178 875,4027 1331,4019 1912,4105 1907,3592 "/>
   <path class="fil6" d="M1798 3196c0,0 -712,666 -711,851 0,185 -200,219 -200,219l-18 -371 929 -699z"/>
   <path class="fil3" d="M3887 2826c0,0 68,320 242,525 174,204 197,290 166,301 -31,10 -227,6 -253,13 -25,6 -362,-227 -362,-323 0,-96 39,-367 58,-391 18,-23 149,-125 149,-125z"/>
   <path class="fil12" d="M3921 2594c0,0 72,581 160,639 89,57 396,-131 407,-144 10,-13 39,-271 39,-294 0,-23 -185,-260 -185,-260l-421 59z"/>
   <polygon class="fil13" points="2701,1975 3313,1984 3230,2039 2717,2042 "/>
   <polygon class="fil14" points="2808,1750 3310,1746 3310,1684 2881,1686 "/>
  </g>
 </g>
</svg>
