<?xml version="1.0" encoding="UTF-8"?>
<!DOCTYPE svg PUBLIC "-//W3C//DTD SVG 1.1//EN" "http://www.w3.org/Graphics/SVG/1.1/DTD/svg11.dtd">
<!-- Creator: CorelDRAW X7 -->
<svg xmlns="http://www.w3.org/2000/svg" xml:space="preserve" width="7.08661in" height="2.86732in" version="1.1" style="shape-rendering:geometricPrecision; text-rendering:geometricPrecision; image-rendering:optimizeQuality; fill-rule:evenodd; clip-rule:evenodd"
viewBox="0 0 7087 2867"
 xmlns:xlink="http://www.w3.org/1999/xlink">
 <defs>
  <style type="text/css">
   <![CDATA[
    .fil3 {fill:#8381B7}
    .fil2 {fill:#B4B3D3}
    .fil1 {fill:#BE3E3D}
    .fil4 {fill:#D7D6E7}
    .fil0 {fill:rgb(190 62 61)}
   ]]>
  </style>
 </defs>
 <g id="Layer_x0020_1">
  <metadata id="CorelCorpID_0Corel-Layer"/>
  <g id="_352799392">
   <path class="fil0" d="M3139 2512c-146,-132 -60,-368 6,-525 153,48 176,82 379,96 -40,168 -182,438 -385,429zm-2150 -743c47,22 28,11 57,45 -102,-10 -47,-8 -57,-45zm0 0c-23,13 -18,15 -12,-10 26,-5 28,-13 12,10zm2076 -83c-96,-214 63,-616 337,-424 178,125 199,434 156,706 -122,3 -284,-11 -352,-89 23,-61 71,-98 43,-167 -69,-108 -152,-21 -184,-26zm-855 -236c7,-1144 454,-1682 454,-1022 0,350 -273,918 -454,1022zm-1233 309c-70,-38 -196,-168 -232,-252l-131 2c-2,112 188,242 219,308 -168,-34 -367,-335 -432,-408l-133 3c-7,21 -13,5 -9,34 11,76 295,349 307,371 -218,-75 -397,-398 -446,-408 -369,-73 241,441 264,472 -82,58 -385,327 -384,456l151 3c61,-119 305,-381 411,-403 -42,52 -312,303 -301,390l23 10c146,29 128,-25 207,-117 70,-84 242,-265 340,-284 -42,63 -103,104 -153,176 -69,99 -132,142 59,131 67,-89 126,-181 207,-232 20,-36 -27,0 38,-41 2,-1 33,-16 41,-19 -23,44 -34,54 -75,80 -56,72 -144,153 -118,206l112 7c93,-116 216,-311 377,-311 215,-1 469,-11 680,3 15,243 95,692 272,841 96,82 271,133 402,42 42,-29 108,-99 138,-144 35,-52 62,-131 110,-174 105,176 309,197 495,54 193,-147 236,-437 275,-479 26,-28 106,-36 188,-66 59,-21 120,-46 175,-66 31,74 196,713 400,242 50,-114 223,-643 208,-765 -25,-20 -46,-37 -94,-38 -95,98 -157,592 -261,757 -143,-267 -79,-807 -317,-715 -37,106 25,287 37,396 -96,39 -199,97 -314,116 10,-230 29,-378 -75,-570 -294,-543 -895,-219 -717,331 52,159 83,72 10,238 -120,271 -26,260 -137,514 -234,534 -481,325 -556,-172 -30,-205 -33,-425 -33,-636l280 -330c79,-121 152,-245 210,-397 101,-266 193,-805 -102,-903 -296,-98 -450,425 -504,682 -128,610 -60,644 -102,1123 -227,0 -458,4 -684,1 -87,-2 -147,-63 -213,-125l-119 -147c-38,-51 -24,-42 -152,-37 -2,101 127,177 158,250z"/>
   <path class="fil0" d="M4845 1749c23,-136 92,-288 211,-316 -13,146 -123,268 -211,316zm753 184l701 0c-47,117 -28,173 63,233 230,154 454,-132 606,-220 40,-23 93,-31 119,-67 -18,-40 -104,-61 -219,-145 -77,-57 -115,-105 -215,-155 -206,-102 -457,27 -349,235l-774 1c-54,18 -107,232 -342,364 -251,142 -354,-51 -360,-287 219,-66 469,-412 313,-548 -158,-139 -439,15 -500,404 -48,313 91,607 380,607 317,0 507,-376 577,-422z"/>
   <path class="fil1" d="M6304 1814l30 49 -35 70c-47,117 -28,173 63,233 230,154 454,-132 606,-220 40,-23 93,-31 119,-67 -18,-40 -104,-61 -219,-145 -77,-57 -115,-105 -215,-155 -206,-102 -457,27 -349,235z"/>
   <path class="fil2" d="M944 2011l4 20c41,-26 52,-36 75,-80 -8,3 -39,18 -41,19 -65,41 -18,5 -38,41z"/>
   <path class="fil3" d="M989 1769c10,37 -45,35 57,45 -29,-34 -10,-23 -57,-45z"/>
   <path class="fil4" d="M989 1769c16,-23 14,-15 -12,-10 -6,25 -11,23 12,10z"/>
   <g>
    <path class="fil1" d="M1199 1785l111 94 -121 96 0 0c-100,64 -181,187 -247,269l-112 -7c-26,-53 62,-134 118,-206 41,-26 52,-36 75,-80 -8,3 -39,18 -41,19 -65,41 -18,5 -38,41 -81,51 -140,143 -207,232 -191,11 -128,-32 -59,-131 50,-72 111,-113 153,-176 -98,19 -270,200 -340,284 -79,92 -61,146 -207,117l-23 -10c-11,-87 259,-338 301,-390 -106,22 -350,284 -411,403l-151 -3c-1,-129 302,-398 384,-456 -23,-31 -633,-545 -264,-472 49,10 228,333 446,408 -12,-22 -296,-295 -307,-371 -4,-29 2,-13 9,-34l133 -3c65,73 264,374 432,408 -31,-66 -221,-196 -219,-308l131 -2c36,84 162,214 232,252 -31,-73 -160,-149 -158,-250 128,-5 114,-14 152,37l119 147c36,34 71,68 109,92zm-210 -16c47,22 28,11 57,45 -102,-10 -47,-8 -57,-45zm0 0c-23,13 -18,15 -12,-10 26,-5 28,-13 12,10z"/>
    <path class="fil1" d="M944 2011l4 20c41,-26 52,-36 75,-80 -8,3 -39,18 -41,19 -65,41 -18,5 -38,41z"/>
    <path class="fil1" d="M989 1769c10,37 -45,35 57,45 -29,-34 -10,-23 -57,-45z"/>
    <path class="fil1" d="M989 1769c16,-23 14,-15 -12,-10 -6,25 -11,23 12,10z"/>
   </g>
  </g>
 </g>
</svg>
