<?xml version="1.0" encoding="utf-8"?><svg xml:space="preserve" viewBox="0 0 100 100" y="0" x="0" xmlns="http://www.w3.org/2000/svg" id="圖層_1" version="1.1" width="200px" height="200px" xmlns:xlink="http://www.w3.org/1999/xlink" style="width:100%;height:100%;background-size:initial;background-repeat-y:initial;background-repeat-x:initial;background-position-y:initial;background-position-x:initial;background-origin:initial;background-image:initial;background-color:rgb(255, 255, 255);background-clip:initial;background-attachment:initial;animation-play-state:paused" ><g class="ldl-scale" style="transform-origin:50% 50%;transform:rotate(0deg) scale(0.8, 0.8);animation-play-state:paused" ><path stroke-miterlimit="10" stroke-width="4" stroke="#333" fill="#e0e0e0" d="M83.688 79.629H16.312a4.558 4.558 0 0 1-4.558-4.558V24.929a4.558 4.558 0 0 1 4.558-4.558h67.376a4.558 4.558 0 0 1 4.558 4.558v50.143a4.559 4.559 0 0 1-4.558 4.557z" style="stroke:rgb(51, 51, 51);fill:rgb(224, 224, 224);animation-play-state:paused" ></path>
<path d="M18 27h64v46H18z" fill="#fff" style="fill:rgb(255, 255, 255);animation-play-state:paused" ></path>
<path fill="#666" d="M80.823 63.082L69.825 45.5a3.588 3.588 0 0 0-2.849-1.696 3.59 3.59 0 0 0-3.037 1.329l-7.459 9.159-12.067-16.235a3.6 3.6 0 0 0-2.845-1.462c-1.164-.046-2.189.475-2.897 1.359L19.694 61.679A7.763 7.763 0 0 0 18 66.508v6.412h64v-5.738a7.721 7.721 0 0 0-1.177-4.1z" style="fill:rgb(102, 102, 102);animation-play-state:paused" ></path>
<metadata xmlns:d="https://loading.io/stock/" style="animation-play-state:paused" ><d:name style="animation-play-state:paused" >photo</d:name>
<d:tags style="animation-play-state:paused" >scene,mountain,picture,image,photo,camera</d:tags>
<d:license style="animation-play-state:paused" >by</d:license>
<d:slug style="animation-play-state:paused" >oz6i8b</d:slug></metadata></g><!-- generated by https://loading.io/ --></svg>