<!-- <style>
    svg{
        fill:red;
    }
</style> -->
<svg xmlns="http://www.w3.org/2000/svg" width="105.169" height="107.372" viewBox="0 0 105.169 107.372">
    <defs>
        <style>
            .cls-1{fill:rgb(193, 156, 91)}
        </style>
    </defs>
    <g id="save_the_date_hijab_2_blue" transform="translate(-1246.646 -958.6)">
        <g id="Group_11703" transform="translate(1246.646 958.6)">
            <g id="Group_11560" transform="translate(9.891 10.195)">
                <g id="Group_11559">
                    <path id="Path_93889" d="M1299.342 1057.238a45.729 45.729 0 1 1 45.728-45.728 45.781 45.781 0 0 1-45.728 45.728zm0-90.2a44.466 44.466 0 1 0 44.466 44.467 44.518 44.518 0 0 0-44.466-44.462z" class="cls-1" transform="translate(-1253.613 -965.781)"/>
                </g>
            </g>
            <g id="Group_11631" transform="translate(0 73.9)">
                <g id="Group_11563" transform="translate(2.106 2.029)">
                    <g id="Group_11562">
                        <g id="Group_11561">
                            <path id="Path_93890" d="M1248.163 1012.247a91.639 91.639 0 0 0 18.42 15.925 62.181 62.181 0 0 0 22.076 9.1 49.169 49.169 0 0 0 13.589.637c.458-.043-.082-.342-.314-.319a50.513 50.513 0 0 1-23.456-3.635 74.062 74.062 0 0 1-20.219-12.52 98.836 98.836 0 0 1-9.466-9.25c-.134-.149-.822-.152-.631.061z" class="cls-1" transform="translate(-1248.129 -1012.079)"/>
                        </g>
                    </g>
                </g>
                <g id="Group_11566" transform="translate(6.857 3.974)">
                    <g id="Group_11565">
                        <g id="Group_11564">
                            <path id="Path_93891" d="M1251.483 1013.582a25.916 25.916 0 0 0 .284 3.227c.013.153.195.214.325.234.074.011.39.02.379-.125a25.646 25.646 0 0 1-.284-3.227c.007-.151-.209-.217-.325-.234-.089-.014-.372-.023-.379.125z" class="cls-1" transform="translate(-1251.476 -1013.45)"/>
                        </g>
                    </g>
                </g>
                <g id="Group_11569" transform="translate(4.983 10.756)">
                    <g id="Group_11568">
                        <g id="Group_11567">
                            <path id="Path_93892" d="M1256.2 1018.252a20.187 20.187 0 0 1-5.761.514c-.114 0-.317.044-.282.2s.291.2.413.2a21.28 21.28 0 0 0 6.087-.565c.15-.044.145-.185.042-.274a.564.564 0 0 0-.5-.075z" class="cls-1" transform="translate(-1250.156 -1018.226)"/>
                        </g>
                    </g>
                </g>
                <g id="Group_11572" transform="translate(16.404 5.905)">
                    <g id="Group_11571">
                        <g id="Group_11570">
                            <path id="Path_93893" d="M1258.627 1014.934a19.149 19.149 0 0 0-.364 4.966 14.821 14.821 0 0 0 .189 4.312c.061.213.761.26.691.017a15.285 15.285 0 0 1-.175-4.358 18.238 18.238 0 0 1 .362-4.829c.058-.207-.639-.344-.7-.108z" class="cls-1" transform="translate(-1258.201 -1014.81)"/>
                        </g>
                    </g>
                </g>
                <g id="Group_11575" transform="translate(26.227 11.949)">
                    <g id="Group_11574">
                        <g id="Group_11573">
                            <path id="Path_93894" d="M1266.031 1019.191a17.052 17.052 0 0 0-.906 5.266 17.733 17.733 0 0 0 .849 4.4c.064.213.764.257.692.019a16.85 16.85 0 0 1-.841-4.428 17.585 17.585 0 0 1 .91-5.144c.058-.206-.636-.344-.7-.108z" class="cls-1" transform="translate(-1265.119 -1019.067)"/>
                        </g>
                    </g>
                </g>
                <g id="Group_11578" transform="translate(13.766 18.266)">
                    <g id="Group_11577">
                        <g id="Group_11576">
                            <path id="Path_93895" d="M1263.875 1023.573a13.271 13.271 0 0 1-1.61.9 7.654 7.654 0 0 1-1.865.5 17.019 17.019 0 0 1-3.771.187c-.114-.007-.316.046-.282.195s.292.192.413.2a16.848 16.848 0 0 0 2.141-.031 17.988 17.988 0 0 0 1.912-.186 8 8 0 0 0 1.908-.522 13.973 13.973 0 0 0 1.732-.964c.142-.088.011-.226-.085-.278a.539.539 0 0 0-.493-.006z" class="cls-1" transform="translate(-1256.342 -1023.516)"/>
                        </g>
                    </g>
                </g>
                <g id="Group_11581" transform="translate(27.581 23.897)">
                    <g id="Group_11580">
                        <g id="Group_11579">
                            <path id="Path_93896" d="M1270.6 1027.593a3.981 3.981 0 0 1-.97 1.205c-.321.305-.611.642-.951.926a6.823 6.823 0 0 1-2.488 1.35c-.152.043-.143.19-.042.278a.56.56 0 0 0 .5.077 7.17 7.17 0 0 0 2.608-1.413c.354-.294.652-.642.984-.957a4.181 4.181 0 0 0 1.024-1.256c.129-.282-.558-.44-.663-.21z" class="cls-1" transform="translate(-1266.073 -1027.482)"/>
                        </g>
                    </g>
                </g>
                <g id="Group_11584" transform="translate(28.968 26.789)">
                    <g id="Group_11583">
                        <g id="Group_11582">
                            <path id="Path_93897" d="M1280.213 1029.578a15.889 15.889 0 0 1-6.011 3.356 50.4 50.4 0 0 1-7.044 1.661c-.162.031-.115.142-.034.223a.636.636 0 0 0 .5.077 48.189 48.189 0 0 0 7.315-1.758 16.134 16.134 0 0 0 5.942-3.371c.149-.148-.5-.349-.666-.189z" class="cls-1" transform="translate(-1267.05 -1029.519)"/>
                        </g>
                    </g>
                </g>
                <g id="Group_11587" transform="translate(40.735 21.44)">
                    <g id="Group_11586">
                        <g id="Group_11585">
                            <path id="Path_93898" d="M1275.349 1025.9a30.652 30.652 0 0 0 1.873 2.99 23.8 23.8 0 0 0 2.117 2.845.573.573 0 0 0 .473.135c.1-.016.274-.092.162-.214a22.782 22.782 0 0 1-2.057-2.756 31.109 31.109 0 0 1-1.874-2.986c-.111-.211-.8-.22-.693-.014z" class="cls-1" transform="translate(-1275.338 -1025.752)"/>
                        </g>
                    </g>
                </g>
                <g id="Group_11589" transform="translate(6.439 2.885)">
                    <g id="Group_11588">
                        <path id="Path_93899" d="M1251.71 1014.361a.875.875 0 1 0-.456-1.151.875.875 0 0 0 .456 1.151z" class="cls-1" transform="translate(-1251.182 -1012.682)"/>
                    </g>
                </g>
                <g id="Group_11591" transform="translate(3.806 10.164)">
                    <g id="Group_11590">
                        <path id="Path_93900" d="M1250.038 1020.072a1.18 1.18 0 1 0-.613-1.552 1.18 1.18 0 0 0 .613 1.552z" class="cls-1" transform="translate(-1249.327 -1017.81)"/>
                    </g>
                </g>
                <g id="Group_11593" transform="translate(15.905 4.246)">
                    <g id="Group_11592">
                        <path id="Path_93901" d="M1258.56 1015.9a1.18 1.18 0 1 0-.613-1.552 1.181 1.181 0 0 0 .613 1.552z" class="cls-1" transform="translate(-1257.849 -1013.642)"/>
                    </g>
                </g>
                <g id="Group_11595" transform="translate(13.707 6.578)">
                    <g id="Group_11594">
                        <path id="Path_93902" d="M1256.741 1016.686a.731.731 0 1 0-.38-.961.731.731 0 0 0 .38.961z" class="cls-1" transform="translate(-1256.301 -1015.284)"/>
                    </g>
                </g>
                <g id="Group_11597" transform="translate(22.531 10.82)">
                    <g id="Group_11596">
                        <path id="Path_93903" d="M1262.957 1019.673a.731.731 0 1 0-.381-.961.729.729 0 0 0 .381.961z" class="cls-1" transform="translate(-1262.516 -1018.271)"/>
                    </g>
                </g>
                <g id="Group_11599" transform="translate(32.1 28.049)">
                    <g id="Group_11598">
                        <path id="Path_93904" d="M1269.7 1031.807a.73.73 0 1 0-.381-.96.731.731 0 0 0 .381.96z" class="cls-1" transform="translate(-1269.255 -1030.406)"/>
                    </g>
                </g>
                <g id="Group_11601" transform="translate(15.439 17.609)">
                    <g id="Group_11600">
                        <path id="Path_93905" d="M1257.961 1024.456a.731.731 0 1 0-.381-.961.731.731 0 0 0 .381.961z" class="cls-1" transform="translate(-1257.521 -1023.054)"/>
                    </g>
                </g>
                <g id="Group_11603" transform="translate(1.654 10.374)">
                    <g id="Group_11602">
                        <path id="Path_93906" d="M1248.252 1019.36a.731.731 0 1 0-.38-.961.731.731 0 0 0 .38.961z" class="cls-1" transform="translate(-1247.812 -1017.958)"/>
                    </g>
                </g>
                <g id="Group_11605" transform="translate(3.009)">
                    <g id="Group_11604">
                        <path id="Path_93907" d="M1249.206 1012.053a.731.731 0 1 0-.381-.961.733.733 0 0 0 .381.961z" class="cls-1" transform="translate(-1248.766 -1010.651)"/>
                    </g>
                </g>
                <g id="Group_11607" transform="translate(40.263 18.869)">
                    <g id="Group_11606">
                        <path id="Path_93908" d="M1275.447 1025.343a.731.731 0 1 0-.381-.961.731.731 0 0 0 .381.961z" class="cls-1" transform="translate(-1275.006 -1023.94)"/>
                    </g>
                </g>
                <g id="Group_11609" transform="translate(29.254 28.424)">
                    <g id="Group_11608">
                        <path id="Path_93909" d="M1267.593 1031.76a.568.568 0 1 0-.3-.747.568.568 0 0 0 .3.747z" class="cls-1" transform="translate(-1267.251 -1030.671)"/>
                    </g>
                </g>
                <g id="Group_11611" transform="translate(27.851 13.695)">
                    <g id="Group_11610">
                        <path id="Path_93910" d="M1266.821 1022.072a.926.926 0 1 0-.481-1.217.926.926 0 0 0 .481 1.217z" class="cls-1" transform="translate(-1266.263 -1020.296)"/>
                    </g>
                </g>
                <g id="Group_11613" transform="translate(12.937 18.933)">
                    <g id="Group_11612">
                        <path id="Path_93911" d="M1256.47 1026.249a1.18 1.18 0 1 0-.615-1.552 1.18 1.18 0 0 0 .615 1.552z" class="cls-1" transform="translate(-1255.759 -1023.986)"/>
                    </g>
                </g>
                <g id="Group_11615" transform="translate(26.31 26.298)">
                    <g id="Group_11614">
                        <path id="Path_93912" d="M1265.888 1031.436a1.18 1.18 0 1 0-.614-1.552 1.181 1.181 0 0 0 .614 1.552z" class="cls-1" transform="translate(-1265.177 -1029.173)"/>
                    </g>
                </g>
                <g id="Group_11617" transform="translate(39.067 21.527)">
                    <g id="Group_11616">
                        <path id="Path_93913" d="M1274.623 1027.277a.763.763 0 1 0-.4-1 .764.764 0 0 0 .4 1z" class="cls-1" transform="translate(-1274.163 -1025.813)"/>
                    </g>
                </g>
                <g id="Group_11619" transform="translate(32.067 31.945)">
                    <g id="Group_11618">
                        <path id="Path_93914" d="M1269.693 1034.615a.763.763 0 1 0-.4-1 .763.763 0 0 0 .4 1z" class="cls-1" transform="translate(-1269.233 -1033.151)"/>
                    </g>
                </g>
                <g id="Group_11621" transform="translate(26.726 11.363)">
                    <g id="Group_11620">
                        <path id="Path_93915" d="M1265.931 1020.118a.763.763 0 1 0-.4-1 .762.762 0 0 0 .4 1z" class="cls-1" transform="translate(-1265.471 -1018.654)"/>
                    </g>
                </g>
                <g id="Group_11624" transform="translate(23.083 11.474)">
                    <g id="Group_11623">
                        <g id="Group_11622">
                            <path id="Path_93916" d="M1262.909 1018.8a20.17 20.17 0 0 0 3.4 4.479c.07.077.415.075.317-.035a20 20 0 0 1-3.366-4.435c-.05-.1-.395-.111-.346-.008z" class="cls-1" transform="translate(-1262.905 -1018.732)"/>
                        </g>
                    </g>
                </g>
                <g id="Group_11627" transform="translate(32.668 28.695)">
                    <g id="Group_11626">
                        <g id="Group_11625">
                            <path id="Path_93917" d="M1269.76 1031.017a20.54 20.54 0 0 0 5.634.8c.24.014.091-.161-.07-.17a19.781 19.781 0 0 1-5.446-.768c-.155-.054-.344.061-.118.142z" class="cls-1" transform="translate(-1269.656 -1030.861)"/>
                        </g>
                    </g>
                </g>
                <g id="Group_11630" transform="translate(0 2.789)">
                    <g id="Group_11629">
                        <g id="Group_11628">
                            <path id="Path_93918" d="M1246.687 1012.724a20.266 20.266 0 0 0 5.1 2.387c.112.043.415-.031.2-.112a20.021 20.021 0 0 1-5.036-2.35c-.084-.062-.422-.04-.266.075z" class="cls-1" transform="translate(-1246.646 -1012.615)"/>
                        </g>
                    </g>
                </g>
            </g>
            <g id="Group_11702" transform="translate(74.835)">
                <g id="Group_11634" transform="translate(1.75 1.877)">
                    <g id="Group_11633">
                        <g id="Group_11632">
                            <path id="Path_93919" d="M1300.73 959.949a80.892 80.892 0 0 1 14.561 15.795 54.855 54.855 0 0 1 8.645 19.209 43.39 43.39 0 0 1 .944 11.966c-.026.4-.3-.064-.291-.268a44.551 44.551 0 0 0-3.865-20.581 65.311 65.311 0 0 0-11.608-17.476 87.117 87.117 0 0 0-8.423-8.086c-.135-.114-.156-.721.037-.559z" class="cls-1" transform="translate(-1300.588 -959.922)"/>
                        </g>
                    </g>
                </g>
                <g id="Group_11637" transform="translate(3.601 5.999)">
                    <g id="Group_11636">
                        <g id="Group_11635">
                            <path id="Path_93920" d="M1302 962.843a22.862 22.862 0 0 1 2.852.16c.135.006.194.165.216.28.013.065.028.344-.1.338a22.837 22.837 0 0 0-2.854-.16c-.133.011-.2-.176-.216-.278-.014-.079-.03-.328.1-.339z" class="cls-1" transform="translate(-1301.891 -962.826)"/>
                        </g>
                    </g>
                </g>
                <g id="Group_11640" transform="translate(9.695 4.153)">
                    <g id="Group_11639">
                        <g id="Group_11638">
                            <path id="Path_93921" d="M1306.2 966.876a17.813 17.813 0 0 0 .291-5.094c0-.1.03-.281.168-.254s.185.25.189.358a18.74 18.74 0 0 1-.327 5.382c-.034.134-.159.134-.24.045a.5.5 0 0 1-.081-.437z" class="cls-1" transform="translate(-1306.184 -961.525)"/>
                        </g>
                    </g>
                </g>
                <g id="Group_11643" transform="translate(5.583 14.168)">
                    <g id="Group_11642">
                        <g id="Group_11641">
                            <path id="Path_93922" d="M1303.39 969.164a16.911 16.911 0 0 1 4.369-.461 13.06 13.06 0 0 1 3.808.045c.189.048.25.665.034.609a13.5 13.5 0 0 0-3.849-.031 16.031 16.031 0 0 0-4.247.456c-.182.055-.321-.554-.115-.618z" class="cls-1" transform="translate(-1303.288 -968.579)"/>
                        </g>
                    </g>
                </g>
                <g id="Group_11646" transform="translate(11.203 22.723)">
                    <g id="Group_11645">
                        <g id="Group_11644">
                            <path id="Path_93923" d="M1307.348 975.552a15.053 15.053 0 0 1 4.619-.947 15.693 15.693 0 0 1 3.9.625c.189.051.247.667.034.611a14.817 14.817 0 0 0-3.927-.618 15.532 15.532 0 0 0-4.511.947c-.179.058-.321-.551-.115-.618z" class="cls-1" transform="translate(-1307.246 -974.605)"/>
                        </g>
                    </g>
                </g>
                <g id="Group_11649" transform="translate(16.607 11.654)">
                    <g id="Group_11648">
                        <g id="Group_11647">
                            <path id="Path_93924" d="M1311.1 973.5a11.827 11.827 0 0 0 .751-1.445 6.794 6.794 0 0 0 .392-1.66 15.03 15.03 0 0 0 .058-3.331c-.01-.1.031-.28.163-.254s.177.253.187.359a14.946 14.946 0 0 1 .032 1.888 15.973 15.973 0 0 1-.111 1.691 7.045 7.045 0 0 1-.406 1.7 12.589 12.589 0 0 1-.8 1.555c-.074.128-.2.016-.248-.068a.467.467 0 0 1-.019-.433z" class="cls-1" transform="translate(-1311.052 -966.808)"/>
                        </g>
                    </g>
                </g>
                <g id="Group_11652" transform="translate(21.878 23.623)">
                    <g id="Group_11651">
                        <g id="Group_11650">
                            <path id="Path_93925" d="M1314.856 979.331a3.529 3.529 0 0 0 1.035-.889c.26-.292.548-.557.79-.866a6.006 6.006 0 0 0 1.12-2.23c.034-.135.163-.132.244-.046a.492.492 0 0 1 .083.437 6.351 6.351 0 0 1-1.173 2.34c-.25.319-.547.592-.815.894a3.716 3.716 0 0 1-1.08.938c-.244.121-.4-.48-.2-.579z" class="cls-1" transform="translate(-1314.765 -975.239)"/>
                        </g>
                    </g>
                </g>
                <g id="Group_11655" transform="translate(24.709 24.724)">
                    <g id="Group_11654">
                        <g id="Group_11653">
                            <path id="Path_93926" d="M1316.806 987.765a14.033 14.033 0 0 0 2.79-5.4 44.429 44.429 0 0 0 1.267-6.257c.023-.145.122-.107.2-.037a.56.56 0 0 1 .081.437 42.382 42.382 0 0 1-1.343 6.5 14.235 14.235 0 0 1-2.805 5.334c-.125.135-.322-.434-.185-.582z" class="cls-1" transform="translate(-1316.759 -976.014)"/>
                        </g>
                    </g>
                </g>
                <g id="Group_11658" transform="translate(19.955 35.393)">
                    <g id="Group_11657">
                        <g id="Group_11656">
                            <path id="Path_93927" d="M1313.535 983.538a26.783 26.783 0 0 1 2.69 1.569 20.678 20.678 0 0 1 2.567 1.786.5.5 0 0 1 .132.412c-.01.089-.072.246-.183.149a20.082 20.082 0 0 0-2.488-1.736 27.452 27.452 0 0 0-2.686-1.569c-.189-.091-.217-.7-.033-.611z" class="cls-1" transform="translate(-1313.41 -983.529)"/>
                        </g>
                    </g>
                </g>
                <g id="Group_11660" transform="translate(2.644 5.652)">
                    <g id="Group_11659">
                        <path id="Path_93928" d="M1302.689 963.024a.772.772 0 1 1-1.028-.369.773.773 0 0 1 1.028.369z" class="cls-1" transform="translate(-1301.218 -962.581)"/>
                    </g>
                </g>
                <g id="Group_11662" transform="translate(8.997 3.117)">
                    <g id="Group_11661">
                        <path id="Path_93929" d="M1307.675 961.393a1.041 1.041 0 1 1-1.386-.5 1.043 1.043 0 0 1 1.386.5z" class="cls-1" transform="translate(-1305.693 -960.795)"/>
                    </g>
                </g>
                <g id="Group_11664" transform="translate(4.12 13.952)">
                    <g id="Group_11663">
                        <path id="Path_93930" d="M1304.239 969.025a1.041 1.041 0 1 1-1.384-.5 1.039 1.039 0 0 1 1.384.5z" class="cls-1" transform="translate(-1302.257 -968.427)"/>
                    </g>
                </g>
                <g id="Group_11666" transform="translate(6.102 11.961)">
                    <g id="Group_11665">
                        <path id="Path_93931" d="M1304.881 967.394a.644.644 0 1 1-.858-.308.645.645 0 0 1 .858.308z" class="cls-1" transform="translate(-1303.653 -967.025)"/>
                    </g>
                </g>
                <g id="Group_11668" transform="translate(10.09 19.622)">
                    <g id="Group_11667">
                        <path id="Path_93932" d="M1307.69 972.79a.644.644 0 1 1-.857-.308.644.644 0 0 1 .857.308z" class="cls-1" transform="translate(-1306.462 -972.42)"/>
                    </g>
                </g>
                <g id="Group_11670" transform="translate(25.552 27.575)">
                    <g id="Group_11669">
                        <path id="Path_93933" d="M1318.58 978.392a.644.644 0 1 1-.858-.308.643.643 0 0 1 .858.308z" class="cls-1" transform="translate(-1317.353 -978.023)"/>
                    </g>
                </g>
                <g id="Group_11672" transform="translate(15.877 13.177)">
                    <g id="Group_11671">
                        <path id="Path_93934" d="M1311.767 968.251a.645.645 0 1 1-.859-.308.647.647 0 0 1 .859.308z" class="cls-1" transform="translate(-1310.539 -967.882)"/>
                    </g>
                </g>
                <g id="Group_11674" transform="translate(9.109 1.226)">
                    <g id="Group_11673">
                        <path id="Path_93935" d="M1307 959.833a.645.645 0 1 1-.859-.308.646.646 0 0 1 .859.308z" class="cls-1" transform="translate(-1305.771 -959.464)"/>
                    </g>
                </g>
                <g id="Group_11676" transform="translate(0 2.712)">
                    <g id="Group_11675">
                        <path id="Path_93936" d="M1300.583 960.88a.644.644 0 1 1-.858-.308.645.645 0 0 1 .858.308z" class="cls-1" transform="translate(-1299.356 -960.51)"/>
                    </g>
                </g>
                <g id="Group_11678" transform="translate(17.687 35.032)">
                    <g id="Group_11677">
                        <path id="Path_93937" d="M1313.041 983.644a.644.644 0 1 1-.858-.308.643.643 0 0 1 .858.308z" class="cls-1" transform="translate(-1311.814 -983.274)"/>
                    </g>
                </g>
                <g id="Group_11680" transform="translate(25.798 25.059)">
                    <g id="Group_11679">
                        <path id="Path_93938" d="M1318.48 976.537a.5.5 0 1 1-.666-.239.5.5 0 0 1 .666.239z" class="cls-1" transform="translate(-1317.526 -976.25)"/>
                    </g>
                </g>
                <g id="Group_11682" transform="translate(12.781 24.227)">
                    <g id="Group_11681">
                        <path id="Path_93939" d="M1309.913 976.132a.816.816 0 1 1-1.086-.39.818.818 0 0 1 1.086.39z" class="cls-1" transform="translate(-1308.358 -975.664)"/>
                    </g>
                </g>
                <g id="Group_11684" transform="translate(16.987 10.922)">
                    <g id="Group_11683">
                        <path id="Path_93940" d="M1313.3 966.889a1.041 1.041 0 1 1-1.384-.5 1.04 1.04 0 0 1 1.384.5z" class="cls-1" transform="translate(-1311.32 -966.293)"/>
                    </g>
                </g>
                <g id="Group_11686" transform="translate(23.858 22.505)">
                    <g id="Group_11685">
                        <path id="Path_93941" d="M1318.141 975.049a1.041 1.041 0 1 1-1.384-.5 1.041 1.041 0 0 1 1.384.5z" class="cls-1" transform="translate(-1316.159 -974.452)"/>
                    </g>
                </g>
                <g id="Group_11688" transform="translate(19.998 33.9)">
                    <g id="Group_11687">
                        <path id="Path_93942" d="M1314.723 982.864a.673.673 0 1 1-.9-.322.672.672 0 0 1 .9.322z" class="cls-1" transform="translate(-1313.441 -982.478)"/>
                    </g>
                </g>
                <g id="Group_11690" transform="translate(28.988 27.436)">
                    <g id="Group_11689">
                        <path id="Path_93943" d="M1321.055 978.312a.673.673 0 1 1-.9-.322.673.673 0 0 1 .9.322z" class="cls-1" transform="translate(-1319.773 -977.924)"/>
                    </g>
                </g>
                <g id="Group_11692" transform="translate(10.688 23.306)">
                    <g id="Group_11691">
                        <path id="Path_93944" d="M1308.166 975.4a.674.674 0 1 1-.9-.321.674.674 0 0 1 .9.321z" class="cls-1" transform="translate(-1306.883 -975.015)"/>
                    </g>
                </g>
                <g id="Group_11695" transform="translate(10.666 20.11)">
                    <g id="Group_11694">
                        <g id="Group_11693">
                            <path id="Path_93945" d="M1306.928 972.768a17.758 17.758 0 0 1 4.045 2.869c.071.058.079.363-.021.28a17.56 17.56 0 0 0-4.005-2.844c-.092-.041-.109-.345-.018-.305z" class="cls-1" transform="translate(-1306.868 -972.764)"/>
                        </g>
                    </g>
                </g>
                <g id="Group_11698" transform="translate(26.121 28.077)">
                    <g id="Group_11697">
                        <g id="Group_11696">
                            <path id="Path_93946" d="M1317.889 978.466a18.106 18.106 0 0 1 .862 4.945c.02.212-.139.084-.152-.057a17.467 17.467 0 0 0-.83-4.78c-.052-.135.044-.305.121-.108z" class="cls-1" transform="translate(-1317.754 -978.376)"/>
                        </g>
                    </g>
                </g>
                <g id="Group_11701" transform="translate(2.359)">
                    <g id="Group_11700">
                        <g id="Group_11699">
                            <path id="Path_93947" d="M1301.111 958.634a17.893 17.893 0 0 1 2.247 4.432c.04.1-.016.365-.094.179a17.657 17.657 0 0 0-2.213-4.374c-.057-.073-.047-.371.06-.237z" class="cls-1" transform="translate(-1301.017 -958.6)"/>
                        </g>
                    </g>
                </g>
            </g>
        </g>
        <g id="Group_11709" transform="translate(-2647.055 -25.147)">
            <g id="Group_11706" transform="translate(3925.786 1018.471)">
                <path id="Path_93954" d="M3932.769 1019.194c1.906-.147 2.756 2.17.821 3.314-1.291.645-2.9-.381-4.223.821-.469.41.352.821.616.879 1.437.293 2.933.117 4.339.587a4.729 4.729 0 0 1 2.991 5.805c-1 3.783-7.008 4.457-9.793 2.522a3.923 3.923 0 0 1-1.466-2.375c-.323-2.522 2.727-3.166 3.431-.7.175.674 4.9 1.172 4.485-1-.264-1.554-3.665-1.173-4.838-1.437a5.08 5.08 0 0 1-2.082-1 4.194 4.194 0 0 1-.322-5.659 6.228 6.228 0 0 1 3.958-1.76 7.327 7.327 0 0 1 1.378-.058 5.341 5.341 0 0 1 .705.061z" class="cls-1" transform="translate(-3925.786 -1018.725)"/>
                <path id="Path_93955" d="M3947.051 1033.178a54.023 54.023 0 0 1 1.876-6.539c.675-2.023.586-1.876 1.29-3.753a8.2 8.2 0 0 1 1.055-2.375 2.91 2.91 0 0 1 4.31.205c1.613 1.759 1.994 5.952 2.141 8.239.088.909.029 3.255.029 3.548 0 2.61-2.463 2.99-3.254 1.554a8.223 8.223 0 0 1-.293-2.551 8.035 8.035 0 0 1-1.671-.029c-.909-.088-.469-.059-1.319-.117-.059 0-.089.029-.147.029a19.063 19.063 0 0 0-.557 2.228c-.792 2.083-3.167 1.76-3.46-.439zm5.131-5.248a2.892 2.892 0 0 0 .5.059c.323.029 1.055-.029 1.231 0a.729.729 0 0 0 .235-.029c-.088-.7-.235-1.378-.352-2.082-.117-.615-.234-1.114-.381-1.671-.44 1.144-.762 2.316-1.143 3.431-.031.116-.06.204-.089.292z" class="cls-1" transform="translate(-3934.058 -1018.928)"/>
                <path id="Path_93956" d="M3970.094 1021.179a24.729 24.729 0 0 0 1.818 4.838c.469 1.056.879 2.111 1.319 3.167.5-1.642.88-3.314 1.232-4.692a30.557 30.557 0 0 1 .82-3.606c1.232-2.082 3.841-.939 3.226 1.29a45.465 45.465 0 0 1-1 4.457 39.673 39.673 0 0 1-2.581 7.653 1.973 1.973 0 0 1-1.437.879c-1.759-.235-2.17-1.613-2.844-3.108-.674-1.583-1.319-3.2-2.023-4.779a27.019 27.019 0 0 1-1.965-5.395c-.318-2.522 2.731-3.167 3.435-.704z" class="cls-1" transform="translate(-3941.677 -1018.921)"/>
                <path id="Path_93957" d="M3989.454 1021.168c-.762-1-.2-2.609 1.642-2.7 2.112.029 4.223.235 6.3.293 2.141.615 2.023 3.049-.147 3.489-1.437 0-2.844-.117-4.281-.205q.088 1.584.264 3.167c.674-.059 1.349-.117 2.052-.147 2.14.616 2.023 3.049-.146 3.489-.528.029-1.056.059-1.554.117.058.675.117 1.319.175 1.994a11.084 11.084 0 0 1 3.343-.763c2.58-.147 2.932 2.962.44 3.46a13.82 13.82 0 0 0-4.252 1.231 1.613 1.613 0 0 1-2.61-.469 1.486 1.486 0 0 1-.264-.88c-.116-4.071-.816-8.029-.962-12.076z" class="cls-1" transform="translate(-3950.423 -1018.471)"/>
            </g>
            <g id="Group_11707" transform="translate(3926.89 1044.574)">
                <path id="Path_93958" d="M3930.261 1061.351c2.375-.645 5.806.733 6.6 2.814a8.665 8.665 0 0 1 .733 2.492c.323 3.225-.147 9.324-4.164 10.174a4.225 4.225 0 0 1-2.962.469 1.766 1.766 0 0 1-2.258-1.73c-.029-2.991-.293-5.923-.439-8.884-.059-1.319-.557-3.724.439-4.9a2.037 2.037 0 0 1 2.051-.435zm1.408 12.491a4.756 4.756 0 0 0 1.26-.557c1.32-1.466 1.467-4.281 1.173-6.069-.235-1.672-.587-2.023-2.112-2.434a3.56 3.56 0 0 0-.615-.029.108.108 0 0 1-.088.029v1.759c.113 2.433.293 4.838.381 7.301z" class="cls-1" transform="translate(-3927.593 -1061.191)"/>
                <path id="Path_93959" d="M3947.364 1076.256a53.758 53.758 0 0 1 1.876-6.539c.674-2.023.586-1.876 1.29-3.753a8.191 8.191 0 0 1 1.056-2.375 2.909 2.909 0 0 1 4.31.205c1.613 1.759 1.994 5.952 2.141 8.239.088.909.029 3.255.029 3.548 0 2.61-2.463 2.991-3.255 1.554a8.218 8.218 0 0 1-.293-2.551 8.036 8.036 0 0 1-1.671-.029c-.908-.088-.469-.059-1.319-.117-.059 0-.088.029-.147.029a19.124 19.124 0 0 0-.557 2.228c-.792 2.083-3.167 1.76-3.46-.439zm5.131-5.249a2.828 2.828 0 0 0 .5.059c.322.029 1.056-.029 1.231 0a.746.746 0 0 0 .235-.029c-.088-.7-.235-1.378-.352-2.082-.118-.615-.234-1.114-.381-1.671-.44 1.144-.763 2.316-1.144 3.43-.03.117-.06.205-.084.293z" class="cls-1" transform="translate(-3935.283 -1061.787)"/>
                <path id="Path_93960" d="M3967.459 1062.543c3.988-.117 6.421-.733 10.38-.85 2.14.615 2.023 3.049-.147 3.489q-1.934.088-3.87.264c-.381 3.753.176 7.594.234 11.377-.117 2.551-3.167 2.668-3.489.147-.088-3.724-.586-7.477-.293-11.171a25.053 25.053 0 0 1-2.961.234c-2.521-.323-2.404-3.373.146-3.49z" class="cls-1" transform="translate(-3942.331 -1061.386)"/>
                <path id="Path_93961" d="M3988.662 1064.246c-.762-1-.2-2.609 1.643-2.7 2.111.029 4.221.235 6.3.293 2.141.616 2.023 3.05-.146 3.49-1.437 0-2.844-.117-4.281-.205q.088 1.584.264 3.166c.674-.059 1.349-.117 2.053-.147 2.14.616 2.023 3.05-.147 3.49-.528.029-1.056.059-1.554.117.059.674.118 1.319.176 1.994a11.076 11.076 0 0 1 3.343-.763c2.581-.147 2.932 2.962.44 3.46a13.834 13.834 0 0 0-4.252 1.231 1.612 1.612 0 0 1-2.609-.469 1.483 1.483 0 0 1-.264-.879c-.116-4.073-.82-8.032-.966-12.078z" class="cls-1" transform="translate(-3951.218 -1061.33)"/>
            </g>
            <g id="Group_11708" transform="translate(3943.293 1037.47)">
                <path id="Path_93962" d="M3955.944 1050.452h-1.507v-.888h4.1v.888h-1.507v3.821h-1.09z" class="cls-1" transform="translate(-3954.437 -1049.564)"/>
                <path id="Path_93963" d="M3966.429 1049.564v4.709h-1.09v-1.931h-2.139v1.931h-1.089v-4.709h1.089v1.857h2.139v-1.857z" class="cls-1" transform="translate(-3957.422 -1049.564)"/>
                <path id="Path_93964" d="M3974.65 1053.4v.874H3971v-4.709h3.558v.874h-2.475v1.023h2.186v.848h-2.186v1.09z" class="cls-1" transform="translate(-3960.881 -1049.564)"/>
            </g>
        </g>
    </g>
</svg>
