<?xml version="1.0" encoding="UTF-8"?>
<!DOCTYPE svg PUBLIC "-//W3C//DTD SVG 1.1//EN" "http://www.w3.org/Graphics/SVG/1.1/DTD/svg11.dtd">
<!-- Creator: CorelDRAW X7 -->
<svg xmlns="http://www.w3.org/2000/svg" xml:space="preserve" width="6.42087in" height="3.11339in" version="1.1" style="shape-rendering:geometricPrecision; text-rendering:geometricPrecision; image-rendering:optimizeQuality; fill-rule:evenodd; clip-rule:evenodd"
viewBox="0 0 6421 3113"
 xmlns:xlink="http://www.w3.org/1999/xlink">
 <defs>
  <style type="text/css">
   <![CDATA[
    .fil0 {fill:url(#id0);fill-rule:nonzero}
    .fil2 {fill:url(#id1);fill-rule:nonzero}
    .fil1 {fill:url(#id2);fill-rule:nonzero}
    .fil3 {fill:url(#id3);fill-rule:nonzero;fill-opacity:0.701961}
   ]]>
  </style>
  <linearGradient id="id0" gradientUnits="userSpaceOnUse" x1="4866.95" y1="311.386" x2="4866.95" y2="2802">
   <stop offset="0" style="stop-opacity:1; stop-color:#A1C8E4"/>
   <stop offset="0.168627" style="stop-opacity:1; stop-color:#A1C8E4"/>
   <stop offset="0.65098" style="stop-opacity:1; stop-color:white"/>
   <stop offset="1" style="stop-opacity:1; stop-color:white"/>
   <stop offset="1" style="stop-opacity:1; stop-color:white"/>
  </linearGradient>
  <linearGradient id="id1" gradientUnits="userSpaceOnUse" x1="6072.83" y1="3700.45" x2="348.039" y2="306.846">
   <stop offset="0" style="stop-opacity:1; stop-color:#A1C8E4"/>
   <stop offset="0.721569" style="stop-opacity:1; stop-color:white"/>
   <stop offset="0.988235" style="stop-opacity:1; stop-color:white"/>
   <stop offset="0.988235" style="stop-opacity:1; stop-color:white"/>
   <stop offset="1" style="stop-opacity:1; stop-color:white"/>
  </linearGradient>
  <linearGradient id="id2" gradientUnits="userSpaceOnUse" x1="4502.64" y1="2076.87" x2="4478.51" y2="2061.99">
   <stop offset="0" style="stop-opacity:1; stop-color:#A1C8E4"/>
   <stop offset="0.258824" style="stop-opacity:1; stop-color:#A1C8E4"/>
   <stop offset="0.988235" style="stop-opacity:1; stop-color:white"/>
   <stop offset="0.988235" style="stop-opacity:1; stop-color:white"/>
   <stop offset="1" style="stop-opacity:1; stop-color:white"/>
  </linearGradient>
  <linearGradient id="id3" gradientUnits="userSpaceOnUse" x1="1017.78" y1="2545.94" x2="-496.024" y2="2737.21">
   <stop offset="0" style="stop-opacity:1; stop-color:#A1C8E4"/>
   <stop offset="1" style="stop-opacity:1; stop-color:#D8E6F0"/>
  </linearGradient>
 </defs>
 <g id="Layer_x0020_1">
  <metadata id="CorelCorpID_0Corel-Layer"/>
  <g id="_-1851382360">
   <g>
    <path class="fil0" d="M6421 7c-3,2 -5,3 -8,4 -16,4 -9,-5 -4,-11 -19,16 -30,18 -39,17 -9,-1 -17,-5 -29,-1 0,0 -4,3 -8,8 -5,5 -12,11 -18,18 -13,13 -62,10 -62,10 -27,7 -12,-10 -16,-13 -56,29 -191,68 -236,106 -45,39 -86,76 -128,104 -19,27 17,10 -13,39 15,-28 -10,-10 -36,11 -24,19 -49,40 -46,28 -18,46 -106,102 -71,117 -36,35 -40,15 -32,3 -42,40 -42,65 -84,86 -10,14 -25,59 -80,97 -34,25 -27,53 -42,78 10,-17 -20,28 -28,32 -9,3 -23,13 -39,18 0,0 4,-8 9,-15 4,-7 9,-14 9,-14 0,0 -4,2 -10,6 -6,4 -13,8 -21,13 -15,10 -31,18 -31,18 -14,6 -17,8 -16,10 -11,6 6,7 -20,24 -22,11 -35,14 -45,15 -10,1 -19,0 -32,0l6 -4c0,0 -8,2 -15,5 -4,1 -8,2 -11,3 -3,0 -5,1 -5,1 -11,4 10,2 25,1 15,-1 24,2 -12,20 -1,-2 -14,-5 -29,-4 -14,-1 -31,2 -40,9 38,-10 37,1 23,10 0,0 -13,4 -27,7 -7,2 -14,3 -19,4 -5,1 -9,2 -9,2 0,0 -33,4 -29,-1 3,-6 -33,-5 -33,-5 -77,18 -83,6 -171,9 -87,3 -178,4 -270,10 2,8 -31,10 -61,14 -31,4 -59,10 -50,22l7 -3c45,-2 -11,20 -47,23 37,-13 -71,-17 21,-33 0,0 -19,0 -37,-1 -18,-1 -37,-1 -37,-1 -11,-10 -29,-14 -51,-12 -11,1 -23,3 -36,6 -12,3 -26,7 -40,11 -7,2 -14,4 -21,7 -7,2 -14,5 -21,7 -15,6 -30,11 -44,16 -30,11 -59,19 -86,25 8,-1 10,1 12,2 -13,3 -25,6 -38,9 -12,4 -24,9 -36,14 -6,3 -12,5 -18,8 -6,3 -11,6 -17,9 -11,6 -22,12 -32,17 -20,13 -38,25 -52,33 -14,10 -24,16 -30,17l-1 16c-41,13 -65,22 -87,36 -11,6 -23,14 -36,25 -12,11 -28,24 -46,43 2,1 14,-4 3,9 -12,5 -25,9 -40,19 -8,5 -16,12 -26,20 -10,9 -20,20 -32,33l5 1c0,0 -5,5 -12,13 -7,8 -17,18 -26,29 -18,21 -36,43 -36,43 15,13 -18,47 -51,89 -32,42 -63,91 -51,117 -5,4 -11,11 -18,21 -6,9 -13,21 -20,34 -7,12 -13,25 -19,38 -6,12 -11,23 -15,31 1,1 2,4 2,11 -17,17 -25,48 -29,81 -2,17 -4,33 -5,49 -2,16 -3,30 -6,42 -11,30 -15,15 -19,0 2,17 -1,35 -5,55 -3,19 -9,40 -14,59 -10,38 -18,72 -16,84 0,47 15,18 23,32 -3,34 -12,31 -18,31 -6,0 -10,3 -3,50 2,-11 3,-31 6,-23 1,18 14,43 25,67 12,24 22,47 19,65 0,0 -2,-6 -4,-11 -2,-6 -4,-12 -4,-12 -2,17 1,34 4,51 4,17 10,34 15,48 2,8 4,15 6,21 2,7 4,13 5,18 1,10 0,18 -6,21l-13 -3c8,26 14,42 16,53 3,11 3,17 4,23 0,6 1,12 4,23 2,11 7,27 18,53l1 -2c5,24 13,41 18,56 3,7 468,247 929,482l2061 0 0 -3106zm-1080 778l0 0 8 -8c8,0 16,0 -8,8z"/>
   </g>
   <g>
    <path class="fil1" d="M4504 2073c-17,-9 -26,-11 -27,-8 18,9 28,13 27,8z"/>
    <path class="fil2" d="M6421 2523c-3,-5 -7,-9 -10,-13 -7,-11 -16,-18 -24,-25 -8,-8 -17,-13 -26,-18 -5,-2 -9,-4 -14,-6 -6,-2 -11,-4 -17,-6 -6,-9 -15,-21 -16,-25 0,-2 3,-2 10,0 6,3 17,10 33,21 -4,-4 -11,-9 -19,-15 -4,-3 -9,-7 -13,-11 -6,-3 -11,-7 -17,-11 -22,-15 -51,-31 -79,-44 -14,-6 -28,-11 -41,-16 -14,-4 -26,-8 -37,-10 -22,-4 -37,-5 -39,0 -6,-4 -20,-7 -35,-10 -14,-2 -28,-2 -34,-2 -12,-2 -22,-3 -31,-4 -10,-1 -18,-2 -26,-3 -15,-1 -28,-2 -41,-3 -25,-1 -50,-1 -96,2l26 3c-9,6 -18,10 -28,12 -10,2 -20,3 -32,4 -12,0 -25,0 -39,1 -15,1 -31,2 -49,6l2 -3c-42,3 -67,7 -84,10 -17,3 -25,7 -34,10 -8,3 -17,5 -33,9 -8,2 -19,4 -32,6 -13,3 -30,5 -50,10l13 11c-2,18 -39,25 -84,31 -11,1 -23,3 -35,5 -12,1 -24,2 -36,4 -25,4 -49,7 -71,15l34 2c-12,5 -27,7 -43,6 -17,-1 -35,-5 -52,-9 -18,-4 -35,-11 -50,-15 -8,-2 -15,-5 -22,-7 -7,-2 -13,-3 -19,-4 -10,-2 16,-4 30,-6 -60,-9 -63,-7 -64,2 0,4 1,8 -4,12 -3,2 -7,3 -13,4 -3,1 -7,1 -11,1 -4,0 -9,0 -15,-1 -7,-6 -1,-12 0,-18 0,-3 -1,-6 -6,-8 -4,-3 -13,-5 -27,-9 -13,-8 -55,-8 -105,-21 -49,-13 -103,-39 -134,-72 12,18 24,35 -17,16 -59,-35 -132,-137 -199,-157 -5,-8 -7,-11 -6,-13 -23,-15 -60,-40 -96,-63 -18,-11 -35,-22 -51,-30 -15,-8 -28,-14 -37,-16 -6,-36 -82,-81 -155,-115 -72,-35 -142,-59 -131,-81 0,0 -10,-4 -25,-11 -14,-7 -35,-15 -54,-23 -20,-9 -41,-16 -56,-21 -15,-6 -25,-10 -25,-10l6 -3c-13,-5 -25,-9 -36,-13 -12,-4 -22,-7 -32,-10 -19,-6 -35,-8 -49,-10 -15,-2 -27,-3 -38,-4 -11,0 -22,1 -32,2 -24,-9 -5,-10 -2,-12 -39,-12 -70,-18 -96,-24 -26,-5 -47,-7 -68,-9 -20,-1 -40,0 -63,1 -12,0 -24,2 -38,3 -14,2 -29,3 -46,6l-13 -15c-10,2 -29,0 -55,-1 -12,0 -27,-1 -43,-2 -16,-1 -34,-1 -52,-2 -73,-1 -92,15 -168,33 1,-2 8,28 20,24 -86,19 -139,64 -227,66 -44,1 -210,3 -243,7 -33,4 -54,-75 -69,-61 0,0 -7,1 -18,2 -10,2 -24,3 -37,4 -14,1 -28,2 -38,2 -11,0 -18,1 -18,1 36,5 52,6 58,10 5,3 0,6 -9,9 -16,6 -43,11 -14,18 -29,-1 -66,-9 -85,-17 -21,-8 -24,-15 10,-11l11 4c7,-6 -1,-12 -15,-17 -8,-2 -17,-4 -27,-7 -10,-3 -21,-5 -33,-8 -11,-2 -22,-6 -33,-9 -10,-4 -20,-7 -28,-10 -17,-7 -27,-13 -24,-18 -8,-3 -17,-5 -24,-8l-24 -10c-7,-4 -15,-7 -23,-11l-23 -11c-7,-4 -15,-8 -22,-12l-22 -14 -21 -13 -22 -15c-14,-10 -29,-20 -43,-30 -14,-10 -28,-21 -43,-31 -28,-21 -56,-43 -84,-64 -111,-86 -222,-173 -340,-247l15 37c0,0 -20,-14 -40,-27 -10,-7 -20,-13 -28,-17 -8,-5 -13,-8 -13,-8 -19,-18 -20,-33 39,3 -25,-30 -106,-50 -110,-46 -57,-36 -43,-35 -18,-28 25,6 59,20 41,10l-51 -26 10 9c-22,-7 -35,-8 -52,-13 -17,-5 -37,-12 -74,-31 -46,-27 -19,-25 -37,-34 1,-1 -6,-5 -29,-13 0,0 -28,-13 -56,-26 -14,-6 -29,-11 -39,-15 -11,-5 -18,-8 -18,-8l39 35c-54,-11 -106,-42 -61,-3 -17,-14 -51,-33 -95,-50 -22,-8 -46,-17 -71,-26 -26,-8 -52,-15 -78,-23 -53,-16 -105,-26 -147,-36 -21,-5 -40,-9 -54,-13 -16,-3 -27,-6 -33,-9 -40,1 -78,-1 -119,-1 -40,-1 -83,-1 -130,2 12,1 21,6 18,12 -2,2 -7,5 -16,8 -10,2 -24,4 -43,6 12,-22 -26,-23 -76,-16 -49,7 -109,25 -145,24 15,-1 10,4 -7,12 -15,9 -41,21 -65,34 -21,11 -41,24 -52,33l0 14c3,-1 6,-2 10,-3 -4,3 -7,4 -10,6l0 2086 6421 0 0 -590zm-92 -51l0 0c9,6 21,15 33,23 12,10 24,18 32,26 9,8 14,13 14,13 8,12 -6,8 -25,0 7,5 13,9 19,12 8,15 9,22 6,25 -11,-15 -24,-29 -38,-42 5,1 9,3 13,5 -5,-4 -11,-8 -17,-12 -2,-1 -4,-2 -5,-3 -7,-6 -14,-12 -21,-18 -4,-6 -8,-13 -11,-18 -6,-8 -12,-15 -16,-20 0,0 6,4 16,9zm-5065 -1388l0 0 16 11c-41,-13 -28,-12 -16,-11z"/>
   </g>
   <path class="fil3" d="M1750 3113c-20,-39 -48,-74 -82,-102 -8,-9 1,-7 8,-6 -18,-8 -22,-15 -24,-21 -2,-7 -1,-14 -7,-20 0,0 -3,-2 -9,-3 -5,-2 -12,-4 -19,-6 -14,-4 -28,-8 -28,-8 -12,-15 5,-11 7,-15 -38,-28 -84,-48 -127,-66 -43,-17 -84,-32 -118,-52 -28,-3 -4,16 -36,6 27,-1 6,-11 -18,-22 -22,-10 -46,-20 -35,-22 -43,4 -111,-37 -115,-8 -38,-12 -23,-22 -11,-20 -43,-15 -77,-29 -105,-50 -14,-2 -60,-24 -107,-47 -47,-22 -95,-47 -119,-49 17,2 17,0 12,-4 -5,-5 -17,-11 -24,-21 0,0 7,1 14,2 6,0 14,1 14,1 0,0 -3,-2 -8,-5 -4,-3 -10,-6 -16,-10 -12,-7 -23,-15 -23,-15 -8,-7 -11,-9 -12,-8 -8,-5 -4,7 -25,-5 -15,-11 -20,-19 -24,-25 -4,-7 -4,-13 -9,-22l6 2c0,0 -4,-4 -8,-9 -2,-2 -4,-4 -5,-6 -2,-1 -3,-3 -3,-3 -6,-6 1,8 6,18 4,10 4,17 -19,-1 1,-2 -1,-12 -4,-22 -4,-10 -10,-20 -19,-24 19,23 9,25 -1,19 0,0 -7,-8 -14,-16 -3,-4 -6,-8 -8,-11 -2,-4 -4,-6 -4,-6 0,0 6,1 11,1 6,1 12,1 12,1 -34,-47 -60,-102 -85,-161 -25,-59 -49,-121 -77,-182 -7,4 -17,-18 -28,-37 -11,-20 -23,-37 -30,-27l4 4c13,30 -20,0 -31,-24 20,21 -5,-55 32,3 0,0 -4,-13 -9,-26 -4,-13 -8,-25 -8,-25 5,-12 4,-26 -4,-40 -3,-7 -8,-15 -13,-22 -6,-8 -13,-16 -20,-24 -3,-4 -7,-8 -11,-12 -4,-4 -8,-8 -12,-12 -8,-9 -16,-17 -24,-25 -16,-16 -31,-34 -43,-50 3,5 2,7 2,9 -6,-8 -11,-15 -17,-23 -7,-7 -14,-14 -21,-20 -4,-3 -8,-7 -11,-10 -4,-3 -8,-6 -12,-8 -8,-6 -15,-11 -23,-16 -15,-10 -29,-18 -40,-24 -11,-6 -19,-11 -22,-15l-13 5c-22,-24 -35,-37 -52,-48 -8,-5 -17,-10 -30,-15 -12,-5 -27,-11 -47,-17 -1,2 6,8 -7,5l-2 -2 0 1519 1750 0zm-996 -568l0 0 9 3c2,5 4,11 -9,-3z"/>
  </g>
 </g>
</svg>
