<?xml version="1.0" encoding="UTF-8"?>
<!DOCTYPE svg PUBLIC "-//W3C//DTD SVG 1.1//EN" "http://www.w3.org/Graphics/SVG/1.1/DTD/svg11.dtd">
<!-- Creator: CorelDRAW X7 -->
<svg xmlns="http://www.w3.org/2000/svg" xml:space="preserve" width="6.42087in" height="2.20472in" version="1.1" style="shape-rendering:geometricPrecision; text-rendering:geometricPrecision; image-rendering:optimizeQuality; fill-rule:evenodd; clip-rule:evenodd"
viewBox="0 0 6421 2205"
 xmlns:xlink="http://www.w3.org/1999/xlink">
 <defs>
  <style type="text/css">
   <![CDATA[
    .fil1 {fill:url(#id0);fill-rule:nonzero}
    .fil0 {fill:url(#id1);fill-rule:nonzero}
   ]]>
  </style>
  <linearGradient id="id0" gradientUnits="userSpaceOnUse" x1="6251.78" y1="-577.378" x2="4822.56" y2="2436.06">
   <stop offset="0" style="stop-opacity:1; stop-color:#A1C8E4"/>
   <stop offset="0.258824" style="stop-opacity:1; stop-color:#A1C8E4"/>
   <stop offset="0.988235" style="stop-opacity:1; stop-color:white"/>
   <stop offset="0.988235" style="stop-opacity:1; stop-color:white"/>
   <stop offset="1" style="stop-opacity:1; stop-color:white"/>
  </linearGradient>
  <linearGradient id="id1" gradientUnits="userSpaceOnUse" x1="1820.76" y1="-658.181" x2="2734.5" y2="2369.75">
   <stop offset="0" style="stop-opacity:1; stop-color:#A1C8E4"/>
   <stop offset="0.0901961" style="stop-opacity:1; stop-color:#A1C8E4"/>
   <stop offset="0.101961" style="stop-opacity:1; stop-color:#A1C8E4"/>
   <stop offset="0.890196" style="stop-opacity:1; stop-color:white"/>
   <stop offset="1" style="stop-opacity:1; stop-color:white"/>
  </linearGradient>
 </defs>
 <g id="Layer_x0020_1">
  <metadata id="CorelCorpID_0Corel-Layer"/>
  <g id="_-1835471088">
   <path class="fil0" d="M5395 0c0,0 0,0 0,0l-5395 0 0 1888c4,1 11,3 22,9 13,8 28,20 43,34 15,13 32,27 48,41 34,27 70,50 102,51 6,6 8,9 7,11 12,4 27,10 44,16 17,6 35,13 53,18 18,6 36,11 51,14 15,3 28,4 36,3 11,35 87,54 157,63 70,10 135,11 130,37 0,0 38,5 76,8 19,2 38,3 52,4 14,1 24,0 24,0l-5 6c25,2 45,2 63,2 17,-1 31,-3 44,-6 25,-4 41,-12 58,-19 22,2 6,8 5,11 35,1 63,-1 86,-2 23,-2 41,-5 59,-9 35,-8 66,-21 120,-48l16 14c7,-4 23,-8 46,-11 22,-5 51,-10 82,-17 16,-4 32,-9 49,-13 8,-3 17,-5 25,-8 8,-3 17,-6 25,-9 17,-7 34,-14 50,-21 16,-9 32,-17 46,-27 0,3 -1,7 -10,14 33,-20 71,-39 111,-56 19,-9 39,-18 59,-26 9,-5 19,-9 29,-13 9,-5 18,-9 27,-14 18,-9 36,-17 52,-26 15,-10 29,-19 41,-28 24,-19 40,-39 42,-60 0,0 19,-17 37,-34 18,-18 37,-36 37,-36 -109,71 -1,-33 -50,-11 39,-32 116,-62 69,-22l-10 3c0,20 35,-1 70,-26 35,-24 70,-52 76,-43 42,-35 35,-57 103,-94 68,-38 73,-76 125,-121 27,-23 28,-66 96,-106 81,-47 114,-18 195,-93 0,0 36,-37 27,-39 -9,-2 -18,-4 -18,-4 0,0 5,-2 11,-6 6,-4 15,-9 23,-14 17,-9 35,-18 35,-18 21,-4 33,5 -15,30 16,-1 34,-14 49,-28 16,-13 27,-28 27,-31 52,-17 45,-5 29,8 -16,13 -39,31 -25,24 0,0 3,-1 6,-3 4,-2 9,-5 14,-7 10,-5 20,-10 20,-10l-10 1c14,-11 21,-21 33,-29 12,-8 27,-18 60,-27 42,-9 25,8 41,4 1,2 6,1 25,-6 0,0 24,-7 48,-12 13,-3 25,-5 34,-7 9,-2 15,-3 15,-3 0,0 -11,-3 -22,-6 -11,-2 -21,-5 -21,-5 20,-11 43,-15 55,-19 12,-4 12,-7 -13,-13 37,9 130,-5 221,-17 91,-12 179,-21 201,-18 62,-19 125,-23 203,-25 -19,-3 -32,-25 36,-26 -22,47 117,17 177,45 -14,-8 30,-11 72,-16 45,-4 86,-11 46,-24 58,0 5,17 49,26 67,-13 142,-16 222,-21 80,-6 166,-14 250,-39 1,-7 -29,-8 4,-27 0,0 24,2 49,3 12,0 24,0 33,0 10,1 16,0 16,0 16,-7 20,-18 29,-28 9,-9 22,-17 55,-20 -10,-1 -26,-3 -5,-14 81,-27 159,-70 228,-125 70,-55 130,-122 181,-193l37 -54c12,-18 23,-37 35,-56l9 -14 8 -15c6,-10 11,-21 16,-31 10,-21 19,-42 27,-63 31,-86 50,-173 69,-260 -14,45 -14,18 -13,-16l-1 0zm-5395 1911c1,1 2,2 3,3 -1,-2 -2,-4 -3,-5l0 2zm3027 -820l0 0 -16 0c32,-15 24,-8 16,0z"/>
   <path class="fil1" d="M4086 0c-5,7 -8,12 -5,6 -12,19 -23,37 -15,9 -19,50 -39,100 -50,151 -3,13 -5,26 -7,39 -1,7 -2,13 -2,20l0 10 0 9c0,12 -1,24 0,36l2 36c5,47 15,94 35,136 20,42 49,79 86,108 8,10 -2,8 -8,7 18,8 22,14 24,21 2,6 0,13 7,20 0,0 3,2 8,3 6,2 13,4 20,6 13,4 28,7 28,7 12,16 -6,12 -7,15 38,29 84,49 127,66 43,18 84,33 118,52 27,3 4,-15 36,-5 -27,0 -6,11 18,22 22,9 45,19 35,21 43,-4 111,37 115,8 38,13 23,22 11,20 43,16 77,29 105,51 14,2 60,23 107,46 47,22 95,47 119,49 -17,-2 -17,0 -12,4 5,5 17,11 25,21 0,0 -7,-1 -14,-2 -7,0 -15,0 -15,0 0,0 3,1 8,4 4,3 10,6 16,10 12,7 23,15 23,15 8,7 11,9 12,8 8,5 4,-7 25,5 15,11 20,19 24,25 4,7 4,13 9,22l-6 -2c0,0 4,4 8,9 2,2 4,4 6,6 1,1 2,3 2,3 6,6 -1,-8 -6,-18 -4,-10 -4,-17 19,1 -1,2 1,12 5,22 3,10 9,20 18,24 -19,-23 -9,-25 2,-19 0,0 7,8 13,16 3,4 6,8 8,11 3,4 4,6 4,6 0,0 -6,-1 -11,-1 -6,-1 -12,-1 -12,-1 34,47 60,101 85,161 25,59 50,121 78,182 6,-4 17,17 28,37 11,19 23,37 30,26l-4 -3c-13,-30 20,0 31,24 -20,-21 4,55 -32,-3 0,0 4,13 8,26 4,13 9,25 9,25 -6,12 -4,25 3,40 4,7 8,14 14,22 6,8 12,16 19,24 4,4 8,8 11,12 4,4 8,8 12,12 8,8 16,17 24,25 17,16 32,33 44,50 -3,-5 -2,-8 -2,-9 5,8 11,15 17,22 7,8 14,14 21,21 4,3 7,6 11,9 4,3 8,6 12,9 7,6 15,11 22,16 16,9 30,17 41,24 11,6 19,11 21,15l14 -5c21,24 34,37 52,47 8,5 17,11 30,16 12,5 27,10 47,16 0,-2 -6,-8 7,-5 7,7 13,14 26,21 6,4 13,7 23,11 9,4 21,7 35,10l0 -3c0,0 5,2 14,4 8,2 19,5 30,7 22,5 45,10 45,10 7,-15 44,-4 86,4 43,7 92,11 110,-6 5,2 12,4 22,5 9,1 21,1 33,2 12,0 24,0 36,0 11,0 22,-1 30,-1 0,-1 3,-3 8,-5 19,6 47,0 75,-9 14,-4 28,-9 41,-13 4,-1 7,-2 10,-3l0 -2008 -2335 0zm958 1026l0 0 -9 -3c-2,-5 -4,-11 9,3z"/>
  </g>
 </g>
</svg>
